<svg width="62" height="62" viewBox="0 0 62 62" fill="none" xmlns="http://www.w3.org/2000/svg">
<g filter="url(#filter0_di_51_258)">
<rect x="3" y="2" width="56" height="56" rx="8" fill="white"/>
<rect x="3.5" y="2.5" width="55" height="55" rx="7.5" stroke="#2F2B43" stroke-opacity="0.1"/>
<g clip-path="url(#clip0_51_258)">
<path d="M31.84 19.8686L34.5657 25.3714C34.6277 25.5111 34.7252 25.6321 34.8486 25.7223C34.9719 25.8126 35.1167 25.8689 35.2686 25.8857L41.2857 26.7772C41.4599 26.7996 41.6242 26.8711 41.7593 26.9833C41.8944 27.0956 41.9948 27.244 42.0487 27.4111C42.1026 27.5783 42.1079 27.7574 42.0639 27.9274C42.0198 28.0975 41.9283 28.2515 41.8 28.3714L37.4629 32.6743C37.3522 32.7777 37.2691 32.9072 37.2212 33.0509C37.1733 33.1946 37.1621 33.348 37.1886 33.4972L38.2343 39.5486C38.2646 39.7225 38.2454 39.9014 38.1791 40.0649C38.1127 40.2285 38.0017 40.3701 37.8588 40.4737C37.7159 40.5773 37.5468 40.6387 37.3708 40.6509C37.1947 40.6632 37.0187 40.6257 36.8629 40.5429L31.4457 37.68C31.307 37.6119 31.1545 37.5765 31 37.5765C30.8455 37.5765 30.693 37.6119 30.5543 37.68L25.1371 40.5429C24.9813 40.6257 24.8053 40.6632 24.6292 40.6509C24.4532 40.6387 24.2841 40.5773 24.1412 40.4737C23.9983 40.3701 23.8873 40.2285 23.821 40.0649C23.7546 39.9014 23.7354 39.7225 23.7657 39.5486L24.8114 33.4286C24.8379 33.2794 24.8267 33.126 24.7788 32.9823C24.7309 32.8386 24.6478 32.7092 24.5371 32.6057L20.1486 28.3714C20.0187 28.2482 19.9274 28.0899 19.8857 27.9158C19.844 27.7417 19.8537 27.5593 19.9135 27.3905C19.9734 27.2218 20.0809 27.0741 20.223 26.9652C20.3652 26.8563 20.5358 26.791 20.7143 26.7772L26.7314 25.8857C26.8833 25.8689 27.0281 25.8126 27.1515 25.7223C27.2748 25.6321 27.3723 25.5111 27.4343 25.3714L30.16 19.8686C30.2342 19.7083 30.3528 19.5726 30.5016 19.4775C30.6504 19.3824 30.8234 19.3319 31 19.3319C31.1766 19.3319 31.3496 19.3824 31.4984 19.4775C31.6473 19.5726 31.7658 19.7083 31.84 19.8686Z" stroke="black" stroke-width="2" stroke-linecap="round" stroke-linejoin="round"/>
</g>
</g>
<defs>
<filter id="filter0_di_51_258" x="0" y="0" width="62" height="62" filterUnits="userSpaceOnUse" color-interpolation-filters="sRGB">
<feFlood flood-opacity="0" result="BackgroundImageFix"/>
<feColorMatrix in="SourceAlpha" type="matrix" values="0 0 0 0 0 0 0 0 0 0 0 0 0 0 0 0 0 0 127 0" result="hardAlpha"/>
<feOffset dy="1"/>
<feGaussianBlur stdDeviation="1.5"/>
<feComposite in2="hardAlpha" operator="out"/>
<feColorMatrix type="matrix" values="0 0 0 0 0.184314 0 0 0 0 0.168627 0 0 0 0 0.262745 0 0 0 0.1 0"/>
<feBlend mode="normal" in2="BackgroundImageFix" result="effect1_dropShadow_51_258"/>
<feBlend mode="normal" in="SourceGraphic" in2="effect1_dropShadow_51_258" result="shape"/>
<feColorMatrix in="SourceAlpha" type="matrix" values="0 0 0 0 0 0 0 0 0 0 0 0 0 0 0 0 0 0 127 0" result="hardAlpha"/>
<feOffset dy="-1"/>
<feComposite in2="hardAlpha" operator="arithmetic" k2="-1" k3="1"/>
<feColorMatrix type="matrix" values="0 0 0 0 0.184314 0 0 0 0 0.168627 0 0 0 0 0.262745 0 0 0 0.1 0"/>
<feBlend mode="normal" in2="shape" result="effect2_innerShadow_51_258"/>
</filter>
<clipPath id="clip0_51_258">
<rect width="24" height="24" fill="white" transform="translate(19 18)"/>
</clipPath>
</defs>
</svg>
